<mxfile host="www.draw.io" modified="2020-02-21T19:36:52.008Z" agent="Mozilla/5.0 (Macintosh; Intel Mac OS X 10_13_6) AppleWebKit/605.1.15 (KHTML, like Gecko) Version/12.1.2 Safari/605.1.15" etag="Bn_f_kCPpHLgXOu87oiC" version="12.7.3" type="github">
  <diagram id="lL0xj3GekGan5eNrphVC" name="Page-1">
    <mxGraphModel dx="2066" dy="1202" grid="1" gridSize="10" guides="1" tooltips="1" connect="1" arrows="1" fold="1" page="1" pageScale="1" pageWidth="850" pageHeight="1100" math="0" shadow="0">
      <root>
        <mxCell id="0" />
        <mxCell id="1" parent="0" />
        <mxCell id="EMFHFXNxI3Z6K873z-OL-1" value="reg_frtb_calc_bval_curves" style="rounded=0;whiteSpace=wrap;html=1;" vertex="1" parent="1">
          <mxGeometry x="100" y="150" width="170" height="50" as="geometry" />
        </mxCell>
        <mxCell id="EMFHFXNxI3Z6K873z-OL-2" value="" style="endArrow=classic;html=1;" edge="1" parent="1">
          <mxGeometry width="50" height="50" relative="1" as="geometry">
            <mxPoint x="270" y="174.5" as="sourcePoint" />
            <mxPoint x="330" y="174.5" as="targetPoint" />
          </mxGeometry>
        </mxCell>
        <mxCell id="EMFHFXNxI3Z6K873z-OL-22" style="edgeStyle=orthogonalEdgeStyle;rounded=0;orthogonalLoop=1;jettySize=auto;html=1;exitX=1;exitY=0.5;exitDx=0;exitDy=0;entryX=0;entryY=0.5;entryDx=0;entryDy=0;" edge="1" parent="1" source="EMFHFXNxI3Z6K873z-OL-3" target="EMFHFXNxI3Z6K873z-OL-13">
          <mxGeometry relative="1" as="geometry" />
        </mxCell>
        <mxCell id="EMFHFXNxI3Z6K873z-OL-3" value="&lt;span style=&quot;color: rgb(3 , 47 , 98) ; font-family: , &amp;#34;consolas&amp;#34; , &amp;#34;liberation mono&amp;#34; , &amp;#34;menlo&amp;#34; , &amp;#34;courier&amp;#34; , monospace ; white-space: pre ; background-color: rgb(255 , 255 , 255)&quot;&gt;reg_frtb_process_slice.sh&lt;/span&gt;" style="rounded=0;whiteSpace=wrap;html=1;" vertex="1" parent="1">
          <mxGeometry x="330" y="155" width="160" height="35" as="geometry" />
        </mxCell>
        <mxCell id="EMFHFXNxI3Z6K873z-OL-6" value="" style="endArrow=classic;html=1;entryX=0;entryY=0.5;entryDx=0;entryDy=0;" edge="1" parent="1">
          <mxGeometry width="50" height="50" relative="1" as="geometry">
            <mxPoint x="270" y="180" as="sourcePoint" />
            <mxPoint x="330" y="230" as="targetPoint" />
          </mxGeometry>
        </mxCell>
        <mxCell id="EMFHFXNxI3Z6K873z-OL-29" style="edgeStyle=orthogonalEdgeStyle;rounded=0;orthogonalLoop=1;jettySize=auto;html=1;exitX=1;exitY=0.5;exitDx=0;exitDy=0;" edge="1" parent="1" source="EMFHFXNxI3Z6K873z-OL-13" target="EMFHFXNxI3Z6K873z-OL-25">
          <mxGeometry relative="1" as="geometry" />
        </mxCell>
        <mxCell id="EMFHFXNxI3Z6K873z-OL-13" value="&lt;span style=&quot;color: rgb(3 , 47 , 98) ; font-family: , &amp;#34;consolas&amp;#34; , &amp;#34;liberation mono&amp;#34; , &amp;#34;menlo&amp;#34; , &amp;#34;courier&amp;#34; , monospace ; white-space: pre ; background-color: rgb(255 , 255 , 255)&quot;&gt;reg_frtb_calc.py&lt;/span&gt;" style="rounded=0;whiteSpace=wrap;html=1;" vertex="1" parent="1">
          <mxGeometry x="520" y="155" width="110" height="35" as="geometry" />
        </mxCell>
        <mxCell id="EMFHFXNxI3Z6K873z-OL-27" style="edgeStyle=orthogonalEdgeStyle;rounded=0;orthogonalLoop=1;jettySize=auto;html=1;exitX=1;exitY=0.5;exitDx=0;exitDy=0;entryX=0;entryY=0.5;entryDx=0;entryDy=0;" edge="1" parent="1" source="EMFHFXNxI3Z6K873z-OL-16" target="EMFHFXNxI3Z6K873z-OL-24">
          <mxGeometry relative="1" as="geometry" />
        </mxCell>
        <mxCell id="EMFHFXNxI3Z6K873z-OL-16" value="&lt;span style=&quot;color: rgb(3 , 47 , 98) ; font-family: , &amp;#34;consolas&amp;#34; , &amp;#34;liberation mono&amp;#34; , &amp;#34;menlo&amp;#34; , &amp;#34;courier&amp;#34; , monospace ; white-space: pre ; background-color: rgb(255 , 255 , 255)&quot;&gt;reg_frtb_calc.py&lt;/span&gt;" style="rounded=0;whiteSpace=wrap;html=1;" vertex="1" parent="1">
          <mxGeometry x="520" y="105" width="110" height="35" as="geometry" />
        </mxCell>
        <mxCell id="EMFHFXNxI3Z6K873z-OL-21" style="edgeStyle=orthogonalEdgeStyle;rounded=0;orthogonalLoop=1;jettySize=auto;html=1;exitX=1;exitY=0.5;exitDx=0;exitDy=0;entryX=0;entryY=0.5;entryDx=0;entryDy=0;" edge="1" parent="1" source="EMFHFXNxI3Z6K873z-OL-17" target="EMFHFXNxI3Z6K873z-OL-16">
          <mxGeometry relative="1" as="geometry" />
        </mxCell>
        <mxCell id="EMFHFXNxI3Z6K873z-OL-17" value="&lt;span style=&quot;color: rgb(3 , 47 , 98) ; font-family: , &amp;#34;consolas&amp;#34; , &amp;#34;liberation mono&amp;#34; , &amp;#34;menlo&amp;#34; , &amp;#34;courier&amp;#34; , monospace ; white-space: pre ; background-color: rgb(255 , 255 , 255)&quot;&gt;reg_frtb_process_slice.sh&lt;/span&gt;" style="rounded=0;whiteSpace=wrap;html=1;" vertex="1" parent="1">
          <mxGeometry x="330" y="105" width="160" height="35" as="geometry" />
        </mxCell>
        <mxCell id="EMFHFXNxI3Z6K873z-OL-23" style="edgeStyle=orthogonalEdgeStyle;rounded=0;orthogonalLoop=1;jettySize=auto;html=1;exitX=1;exitY=0.5;exitDx=0;exitDy=0;entryX=0;entryY=0.5;entryDx=0;entryDy=0;" edge="1" parent="1" source="EMFHFXNxI3Z6K873z-OL-18" target="EMFHFXNxI3Z6K873z-OL-19">
          <mxGeometry relative="1" as="geometry" />
        </mxCell>
        <mxCell id="EMFHFXNxI3Z6K873z-OL-18" value="&lt;span style=&quot;color: rgb(3 , 47 , 98) ; font-family: , &amp;#34;consolas&amp;#34; , &amp;#34;liberation mono&amp;#34; , &amp;#34;menlo&amp;#34; , &amp;#34;courier&amp;#34; , monospace ; white-space: pre ; background-color: rgb(255 , 255 , 255)&quot;&gt;reg_frtb_process_slice.sh&lt;/span&gt;" style="rounded=0;whiteSpace=wrap;html=1;" vertex="1" parent="1">
          <mxGeometry x="330" y="210" width="160" height="35" as="geometry" />
        </mxCell>
        <mxCell id="EMFHFXNxI3Z6K873z-OL-30" style="edgeStyle=orthogonalEdgeStyle;rounded=0;orthogonalLoop=1;jettySize=auto;html=1;exitX=1;exitY=0.5;exitDx=0;exitDy=0;entryX=0;entryY=0.5;entryDx=0;entryDy=0;" edge="1" parent="1" source="EMFHFXNxI3Z6K873z-OL-19" target="EMFHFXNxI3Z6K873z-OL-26">
          <mxGeometry relative="1" as="geometry" />
        </mxCell>
        <mxCell id="EMFHFXNxI3Z6K873z-OL-19" value="&lt;span style=&quot;color: rgb(3 , 47 , 98) ; font-family: , &amp;#34;consolas&amp;#34; , &amp;#34;liberation mono&amp;#34; , &amp;#34;menlo&amp;#34; , &amp;#34;courier&amp;#34; , monospace ; white-space: pre ; background-color: rgb(255 , 255 , 255)&quot;&gt;reg_frtb_calc.py&lt;/span&gt;" style="rounded=0;whiteSpace=wrap;html=1;" vertex="1" parent="1">
          <mxGeometry x="520" y="210" width="110" height="35" as="geometry" />
        </mxCell>
        <mxCell id="EMFHFXNxI3Z6K873z-OL-20" value="" style="endArrow=classic;html=1;entryX=0;entryY=0.5;entryDx=0;entryDy=0;" edge="1" parent="1" target="EMFHFXNxI3Z6K873z-OL-17">
          <mxGeometry width="50" height="50" relative="1" as="geometry">
            <mxPoint x="270" y="170" as="sourcePoint" />
            <mxPoint x="330" y="220" as="targetPoint" />
          </mxGeometry>
        </mxCell>
        <mxCell id="EMFHFXNxI3Z6K873z-OL-24" value="&lt;font color=&quot;#032f62&quot;&gt;&lt;span style=&quot;white-space: pre ; background-color: rgb(255 , 255 , 255)&quot;&gt;load frtb db &lt;/span&gt;&lt;/font&gt;" style="rounded=0;whiteSpace=wrap;html=1;" vertex="1" parent="1">
          <mxGeometry x="660" y="105" width="110" height="35" as="geometry" />
        </mxCell>
        <mxCell id="EMFHFXNxI3Z6K873z-OL-25" value="&lt;font color=&quot;#032f62&quot;&gt;&lt;span style=&quot;white-space: pre ; background-color: rgb(255 , 255 , 255)&quot;&gt;load frtb db &lt;/span&gt;&lt;/font&gt;" style="rounded=0;whiteSpace=wrap;html=1;" vertex="1" parent="1">
          <mxGeometry x="660" y="155" width="110" height="35" as="geometry" />
        </mxCell>
        <mxCell id="EMFHFXNxI3Z6K873z-OL-26" value="&lt;font color=&quot;#032f62&quot;&gt;&lt;span style=&quot;white-space: pre ; background-color: rgb(255 , 255 , 255)&quot;&gt;load frtb db &lt;/span&gt;&lt;/font&gt;" style="rounded=0;whiteSpace=wrap;html=1;" vertex="1" parent="1">
          <mxGeometry x="660" y="210" width="110" height="35" as="geometry" />
        </mxCell>
      </root>
    </mxGraphModel>
  </diagram>
</mxfile>
